g Custom Mesh - Baked
v -19.07853 0.004999995 46.92841
v -19.07853 0.004692852 50.00001
v -20.00001 0.004692852 46.92841
v 9.999994 0.004692852 46.92841
v 9.078516 0.004692852 50.00001
v 9.078516 0.004999995 46.92841
v -19.07853 -0.004692793 50.00001
v -19.07853 -0.004999995 46.92841
v -20.00001 -0.004692793 46.92841
v 9.078516 -0.004692793 50.00001
v 9.999994 -0.004692793 46.92841
v 9.078516 -0.004999995 46.92841
v -19.07852 0.004999995 -46.92841
v -19.99999 0.004692852 -46.92841
v -19.07852 0.004692852 -50.00001
v 9.078527 0.004692852 -50.00001
v 10.00001 0.004692852 -46.92841
v 9.078527 0.004999995 -46.92841
v -19.07852 -0.004692793 -50.00001
v -19.99999 -0.004692793 -46.92841
v -19.07852 -0.004999995 -46.92841
v 10.00001 -0.004692793 -46.92841
v 9.078527 -0.004692793 -50.00001
v 9.078527 -0.004999995 -46.92841
v 10.00001 0.004692852 -46.92841
v 10.00001 -0.004692793 -46.92841
v 9.999994 -0.004692793 46.92841
v 9.999994 0.004692852 46.92841
v 9.078527 -0.004692793 -50.00001
v 9.078527 0.004692852 -50.00001
v -19.07852 0.004692852 -50.00001
v -19.07852 -0.004692793 -50.00001
v 9.078516 -0.004999995 46.92841
v 9.078527 -0.004999995 -46.92841
v -19.07852 -0.004999995 -46.92841
v -19.07853 -0.004999995 46.92841
v -20.00001 0.004692852 46.92841
v -20.00001 -0.004692793 46.92841
v -19.99999 -0.004692793 -46.92841
v -19.99999 0.004692852 -46.92841
v 9.078516 0.004692852 50.00001
v 9.078516 -0.004692793 50.00001
v -19.07853 -0.004692793 50.00001
v -19.07853 0.004692852 50.00001
v 10.00001 0.004692852 -46.92841
v 9.078527 0.004692852 -50.00001
v 9.078527 -0.004692793 -50.00001
v 10.00001 -0.004692793 -46.92841
v 9.999994 0.004692852 46.92841
v 9.078516 0.004999995 46.92841
v 9.078527 0.004999995 -46.92841
v 10.00001 0.004692852 -46.92841
v -19.07853 0.004692852 50.00001
v -19.07853 0.004999995 46.92841
v 9.078516 0.004999995 46.92841
v 9.078516 0.004692852 50.00001
v 9.078527 -0.004999995 -46.92841
v 9.078527 -0.004692793 -50.00001
v -19.07852 -0.004692793 -50.00001
v -19.07852 -0.004999995 -46.92841
v -19.07853 -0.004999995 46.92841
v -19.07853 -0.004692793 50.00001
v 9.078516 -0.004692793 50.00001
v 9.078516 -0.004999995 46.92841
v -19.07852 0.004999995 -46.92841
v -19.07852 0.004692852 -50.00001
v 9.078527 0.004692852 -50.00001
v 9.078527 0.004999995 -46.92841
v -20.00001 -0.004692793 46.92841
v -19.07853 -0.004999995 46.92841
v -19.07852 -0.004999995 -46.92841
v -19.99999 -0.004692793 -46.92841
v -20.00001 0.004692852 46.92841
v -19.07853 0.004692852 50.00001
v -19.07853 -0.004692793 50.00001
v -20.00001 -0.004692793 46.92841
v 10.00001 -0.004692793 -46.92841
v 9.078527 -0.004999995 -46.92841
v 9.078516 -0.004999995 46.92841
v 9.999994 -0.004692793 46.92841
v -19.99999 -0.004692793 -46.92841
v -19.07852 -0.004692793 -50.00001
v -19.07852 0.004692852 -50.00001
v -19.99999 0.004692852 -46.92841
v -19.99999 0.004692852 -46.92841
v -19.07852 0.004999995 -46.92841
v -19.07853 0.004999995 46.92841
v -20.00001 0.004692852 46.92841
v 9.999994 -0.004692793 46.92841
v 9.078516 -0.004692793 50.00001
v 9.078516 0.004692852 50.00001
v 9.999994 0.004692852 46.92841
v 9.078527 0.004999995 -46.92841
v 9.078516 0.004999995 46.92841
v -19.07853 0.004999995 46.92841
v -19.07852 0.004999995 -46.92841

vn -0.7071023 0.7071024 7.062593E-05
vn -0.7071023 0.7071024 7.062593E-05
vn -0.7071023 0.7071024 7.062593E-05
vn 0.7071023 0.7071024 7.079451E-05
vn 0.7071023 0.7071024 7.079451E-05
vn 0.7071023 0.7071024 7.079451E-05
vn -0.7071023 -0.7071024 7.062593E-05
vn -0.7071023 -0.7071024 7.062593E-05
vn -0.7071023 -0.7071024 7.062593E-05
vn 0.7071023 -0.7071024 7.079451E-05
vn 0.7071023 -0.7071024 7.079451E-05
vn 0.7071023 -0.7071024 7.079451E-05
vn -0.7071023 0.7071024 -7.079451E-05
vn -0.7071023 0.7071024 -7.079451E-05
vn -0.7071023 0.7071024 -7.079451E-05
vn 0.7071023 0.7071024 -7.062593E-05
vn 0.7071023 0.7071024 -7.062593E-05
vn 0.7071023 0.7071024 -7.062593E-05
vn -0.7071023 -0.7071024 -7.079451E-05
vn -0.7071023 -0.7071024 -7.079451E-05
vn -0.7071023 -0.7071024 -7.079451E-05
vn 0.7071023 -0.7071024 -7.062593E-05
vn 0.7071023 -0.7071024 -7.062593E-05
vn 0.7071023 -0.7071024 -7.062593E-05
vn 0.9999999 0 1.192093E-07
vn 0.9999999 0 1.192093E-07
vn 0.9999999 0 1.192093E-07
vn 0.9999999 0 1.192093E-07
vn 2.384185E-09 0 -0.02
vn 2.384185E-09 0 -0.02
vn 2.384185E-09 0 -0.02
vn 2.384185E-09 0 -0.02
vn 0 -1 0
vn 0 -1 0
vn 0 -1 0
vn 0 -1 0
vn -0.9999999 0 -1.192093E-07
vn -0.9999999 0 -1.192093E-07
vn -0.9999999 0 -1.192093E-07
vn -0.9999999 0 -1.192093E-07
vn -2.384185E-09 0 0.02
vn -2.384185E-09 0 0.02
vn -2.384185E-09 0 0.02
vn -2.384185E-09 0 0.02
vn 0.9999874 0 -9.987954E-05
vn 0.9999874 0 -9.987954E-05
vn 0.9999874 0 -9.987954E-05
vn 0.9999874 0 -9.987954E-05
vn 0.7071068 0.7071068 8.429367E-08
vn 0.7071068 0.7071068 8.429367E-08
vn 0.7071068 0.7071068 8.429367E-08
vn 0.7071068 0.7071068 8.429367E-08
vn -1.192078E-11 0.9999875 9.999873E-05
vn -1.192078E-11 0.9999875 9.999873E-05
vn -1.192078E-11 0.9999875 9.999873E-05
vn -1.192078E-11 0.9999875 9.999873E-05
vn 1.192078E-11 -0.9999875 -9.999873E-05
vn 1.192078E-11 -0.9999875 -9.999873E-05
vn 1.192078E-11 -0.9999875 -9.999873E-05
vn 1.192078E-11 -0.9999875 -9.999873E-05
vn -1.192078E-11 -0.9999875 9.999873E-05
vn -1.192078E-11 -0.9999875 9.999873E-05
vn -1.192078E-11 -0.9999875 9.999873E-05
vn -1.192078E-11 -0.9999875 9.999873E-05
vn 1.192078E-11 0.9999875 -9.999873E-05
vn 1.192078E-11 0.9999875 -9.999873E-05
vn 1.192078E-11 0.9999875 -9.999873E-05
vn 1.192078E-11 0.9999875 -9.999873E-05
vn -0.7071068 -0.7071068 -8.429367E-08
vn -0.7071068 -0.7071068 -8.429367E-08
vn -0.7071068 -0.7071068 -8.429367E-08
vn -0.7071068 -0.7071068 -8.429367E-08
vn -0.9999874 0 9.987954E-05
vn -0.9999874 0 9.987954E-05
vn -0.9999874 0 9.987954E-05
vn -0.9999874 0 9.987954E-05
vn 0.7071068 -0.7071068 8.429367E-08
vn 0.7071068 -0.7071068 8.429367E-08
vn 0.7071068 -0.7071068 8.429367E-08
vn 0.7071068 -0.7071068 8.429367E-08
vn -0.9999874 0 -0.000100118
vn -0.9999874 0 -0.000100118
vn -0.9999874 0 -0.000100118
vn -0.9999874 0 -0.000100118
vn -0.7071068 0.7071068 -8.429367E-08
vn -0.7071068 0.7071068 -8.429367E-08
vn -0.7071068 0.7071068 -8.429367E-08
vn -0.7071068 0.7071068 -8.429367E-08
vn 0.9999874 0 0.000100118
vn 0.9999874 0 0.000100118
vn 0.9999874 0 0.000100118
vn 0.9999874 0 0.000100118
vn 0 1 0
vn 0 1 0
vn 0 1 0
vn 0 1 0

vt 0.10966 0.8949013
vt 0.1098119 0.8947685
vt 0.1096426 0.8947275
vt 0.1166144 0.9032184
vt 0.1163805 0.9020954
vt 0.1159723 0.9024659
vt 0.1102198 0.8915814
vt 0.1100751 0.8914158
vt 0.1100339 0.8915991
vt 0.1164668 0.8856657
vt 0.1172581 0.8845434
vt 0.1161297 0.8853231
vt 0.1064489 0.8948541
vt 0.1064918 0.8946716
vt 0.1063035 0.8946879
vt 0.09938765 0.8998117
vt 0.09851617 0.9008727
vt 0.09969726 0.9001814
vt 0.1063445 0.8911055
vt 0.1065394 0.8911483
vt 0.1065228 0.8909496
vt 0.1008157 0.8845829
vt 0.1014333 0.8855655
vt 0.1017415 0.8852858
vt 0.006927103 0.9939349
vt 0.9947977 0.9939353
vt 0.9947977 0.006064832
vt 0.006927341 0.006064594
vt 0.9949799 0.004782557
vt 0.007109374 0.004782319
vt 0.007109255 0.9945854
vt 0.9949796 0.9945854
vt 0.006927103 0.004381716
vt 0.9947977 0.004381716
vt 0.9947977 0.9956186
vt 0.006927341 0.9956181
vt 0.007109612 0.004782319
vt 0.007109493 0.9945854
vt 0.9949799 0.9945854
vt 0.9949799 0.004782557
vt 0.006927103 0.9939349
vt 0.9947977 0.9939349
vt 0.9947977 0.006064832
vt 0.006927341 0.006064594
vt 0.09851617 0.9008727
vt 0.09938765 0.8998117
vt 0.1014333 0.8855655
vt 0.1008157 0.8845829
vt 0.1166144 0.9032184
vt 0.1159723 0.9024659
vt 0.09969726 0.9001814
vt 0.09851617 0.9008727
vt 0.1098119 0.8947685
vt 0.10966 0.8949013
vt 0.1159723 0.9024659
vt 0.1163805 0.9020954
vt 0.1017415 0.8852858
vt 0.1014333 0.8855655
vt 0.1063445 0.8911055
vt 0.1065228 0.8909496
vt 0.1100751 0.8914158
vt 0.1102198 0.8915814
vt 0.1164668 0.8856657
vt 0.1161297 0.8853231
vt 0.1064489 0.8948541
vt 0.1063035 0.8946879
vt 0.09938765 0.8998117
vt 0.09969726 0.9001814
vt 0.1100339 0.8915991
vt 0.1100751 0.8914158
vt 0.1065228 0.8909496
vt 0.1065394 0.8911483
vt 0.1096426 0.8947275
vt 0.1098119 0.8947685
vt 0.1102198 0.8915814
vt 0.1100339 0.8915991
vt 0.1008157 0.8845829
vt 0.1017415 0.8852858
vt 0.1161297 0.8853231
vt 0.1172581 0.8845434
vt 0.1065394 0.8911483
vt 0.1063445 0.8911055
vt 0.1063035 0.8946879
vt 0.1064918 0.8946716
vt 0.1064918 0.8946716
vt 0.1064489 0.8948541
vt 0.10966 0.8949013
vt 0.1096426 0.8947275
vt 0.1172581 0.8845434
vt 0.1164668 0.8856657
vt 0.1163805 0.9020954
vt 0.1166144 0.9032184
vt 0.9947977 0.006064594
vt 0.006927341 0.006064594
vt 0.006927103 0.9939346
vt 0.9947977 0.9939349

vt2 0 0
vt2 0 0
vt2 0 0
vt2 0 0
vt2 0 0
vt2 0 0
vt2 0 0
vt2 0 0
vt2 0 0
vt2 0 0
vt2 0 0
vt2 0 0
vt2 0 0
vt2 0 0
vt2 0 0
vt2 0 0
vt2 0 0
vt2 0 0
vt2 0 0
vt2 0 0
vt2 0 0
vt2 0 0
vt2 0 0
vt2 0 0
vt2 0 0
vt2 0 0
vt2 0 0
vt2 0 0
vt2 0 0
vt2 0 0
vt2 0 0
vt2 0 0
vt2 0 0
vt2 0 0
vt2 0 0
vt2 0 0
vt2 0 0
vt2 0 0
vt2 0 0
vt2 0 0
vt2 0 0
vt2 0 0
vt2 0 0
vt2 0 0
vt2 0 0
vt2 0 0
vt2 0 0
vt2 0 0
vt2 0 0
vt2 0 0
vt2 0 0
vt2 0 0
vt2 0 0
vt2 0 0
vt2 0 0
vt2 0 0
vt2 0 0
vt2 0 0
vt2 0 0
vt2 0 0
vt2 0 0
vt2 0 0
vt2 0 0
vt2 0 0
vt2 0 0
vt2 0 0
vt2 0 0
vt2 0 0
vt2 0 0
vt2 0 0
vt2 0 0
vt2 0 0
vt2 0 0
vt2 0 0
vt2 0 0
vt2 0 0
vt2 0 0
vt2 0 0
vt2 0 0
vt2 0 0
vt2 0 0
vt2 0 0
vt2 0 0
vt2 0 0
vt2 0 0
vt2 0 0
vt2 0 0
vt2 0 0
vt2 0 0
vt2 0 0
vt2 0 0
vt2 0 0
vt2 0 0
vt2 0 0
vt2 0 0
vt2 0 0

vt2 0 0
vt2 0 0
vt2 0 0
vt2 0 0
vt2 0 0
vt2 0 0
vt2 0 0
vt2 0 0
vt2 0 0
vt2 0 0
vt2 0 0
vt2 0 0
vt2 0 0
vt2 0 0
vt2 0 0
vt2 0 0
vt2 0 0
vt2 0 0
vt2 0 0
vt2 0 0
vt2 0 0
vt2 0 0
vt2 0 0
vt2 0 0
vt2 0 0
vt2 0 0
vt2 0 0
vt2 0 0
vt2 0 0
vt2 0 0
vt2 0 0
vt2 0 0
vt2 0 0
vt2 0 0
vt2 0 0
vt2 0 0
vt2 0 0
vt2 0 0
vt2 0 0
vt2 0 0
vt2 0 0
vt2 0 0
vt2 0 0
vt2 0 0
vt2 0 0
vt2 0 0
vt2 0 0
vt2 0 0
vt2 0 0
vt2 0 0
vt2 0 0
vt2 0 0
vt2 0 0
vt2 0 0
vt2 0 0
vt2 0 0
vt2 0 0
vt2 0 0
vt2 0 0
vt2 0 0
vt2 0 0
vt2 0 0
vt2 0 0
vt2 0 0
vt2 0 0
vt2 0 0
vt2 0 0
vt2 0 0
vt2 0 0
vt2 0 0
vt2 0 0
vt2 0 0
vt2 0 0
vt2 0 0
vt2 0 0
vt2 0 0
vt2 0 0
vt2 0 0
vt2 0 0
vt2 0 0
vt2 0 0
vt2 0 0
vt2 0 0
vt2 0 0
vt2 0 0
vt2 0 0
vt2 0 0
vt2 0 0
vt2 0 0
vt2 0 0
vt2 0 0
vt2 0 0
vt2 0 0
vt2 0 0
vt2 0 0
vt2 0 0

vc 1 1 1 1
vc 1 1 1 1
vc 1 1 1 1
vc 1 1 1 1
vc 1 1 1 1
vc 1 1 1 1
vc 1 1 1 1
vc 1 1 1 1
vc 1 1 1 1
vc 1 1 1 1
vc 1 1 1 1
vc 1 1 1 1
vc 1 1 1 1
vc 1 1 1 1
vc 1 1 1 1
vc 1 1 1 1
vc 1 1 1 1
vc 1 1 1 1
vc 1 1 1 1
vc 1 1 1 1
vc 1 1 1 1
vc 1 1 1 1
vc 1 1 1 1
vc 1 1 1 1
vc 1 1 1 1
vc 1 1 1 1
vc 1 1 1 1
vc 1 1 1 1
vc 1 1 1 1
vc 1 1 1 1
vc 1 1 1 1
vc 1 1 1 1
vc 1 1 1 1
vc 1 1 1 1
vc 1 1 1 1
vc 1 1 1 1
vc 1 1 1 1
vc 1 1 1 1
vc 1 1 1 1
vc 1 1 1 1
vc 1 1 1 1
vc 1 1 1 1
vc 1 1 1 1
vc 1 1 1 1
vc 1 1 1 1
vc 1 1 1 1
vc 1 1 1 1
vc 1 1 1 1
vc 1 1 1 1
vc 1 1 1 1
vc 1 1 1 1
vc 1 1 1 1
vc 1 1 1 1
vc 1 1 1 1
vc 1 1 1 1
vc 1 1 1 1
vc 1 1 1 1
vc 1 1 1 1
vc 1 1 1 1
vc 1 1 1 1
vc 1 1 1 1
vc 1 1 1 1
vc 1 1 1 1
vc 1 1 1 1
vc 1 1 1 1
vc 1 1 1 1
vc 1 1 1 1
vc 1 1 1 1
vc 1 1 1 1
vc 1 1 1 1
vc 1 1 1 1
vc 1 1 1 1
vc 1 1 1 1
vc 1 1 1 1
vc 1 1 1 1
vc 1 1 1 1
vc 1 1 1 1
vc 1 1 1 1
vc 1 1 1 1
vc 1 1 1 1
vc 1 1 1 1
vc 1 1 1 1
vc 1 1 1 1
vc 1 1 1 1
vc 1 1 1 1
vc 1 1 1 1
vc 1 1 1 1
vc 1 1 1 1
vc 1 1 1 1
vc 1 1 1 1
vc 1 1 1 1
vc 1 1 1 1
vc 1 1 1 1
vc 1 1 1 1
vc 1 1 1 1
vc 1 1 1 1

usemtl SnowURP04
usemap SnowURP04
f 3/3/3 2/2/2 1/1/1
f 6/6/6 5/5/5 4/4/4
f 9/9/9 8/8/8 7/7/7
f 12/12/12 11/11/11 10/10/10
f 15/15/15 14/14/14 13/13/13
f 18/18/18 17/17/17 16/16/16
f 21/21/21 20/20/20 19/19/19
f 24/24/24 23/23/23 22/22/22
f 27/27/27 26/26/26 25/25/25
f 28/28/28 27/27/27 25/25/25
f 31/31/31 30/30/30 29/29/29
f 32/32/32 31/31/31 29/29/29
f 35/35/35 34/34/34 33/33/33
f 36/36/36 35/35/35 33/33/33
f 39/39/39 38/38/38 37/37/37
f 40/40/40 39/39/39 37/37/37
f 43/43/43 42/42/42 41/41/41
f 44/44/44 43/43/43 41/41/41
f 47/47/47 46/46/46 45/45/45
f 48/48/48 47/47/47 45/45/45
f 51/51/51 50/50/50 49/49/49
f 52/52/52 51/51/51 49/49/49
f 55/55/55 54/54/54 53/53/53
f 56/56/56 55/55/55 53/53/53
f 59/59/59 58/58/58 57/57/57
f 60/60/60 59/59/59 57/57/57
f 63/63/63 62/62/62 61/61/61
f 64/64/64 63/63/63 61/61/61
f 67/67/67 66/66/66 65/65/65
f 68/68/68 67/67/67 65/65/65
f 71/71/71 70/70/70 69/69/69
f 72/72/72 71/71/71 69/69/69
f 75/75/75 74/74/74 73/73/73
f 76/76/76 75/75/75 73/73/73
f 79/79/79 78/78/78 77/77/77
f 80/80/80 79/79/79 77/77/77
f 83/83/83 82/82/82 81/81/81
f 84/84/84 83/83/83 81/81/81
f 87/87/87 86/86/86 85/85/85
f 88/88/88 87/87/87 85/85/85
f 91/91/91 90/90/90 89/89/89
f 92/92/92 91/91/91 89/89/89
f 95/95/95 94/94/94 93/93/93
f 96/96/96 95/95/95 93/93/93
